<?xml version="1.0" standalone="no"?><!DOCTYPE svg PUBLIC "-//W3C//DTD SVG 1.1//EN" "http://www.w3.org/Graphics/SVG/1.1/DTD/svg11.dtd"><svg t="1729590991861" class="icon" viewBox="0 0 1024 1024" version="1.1" xmlns="http://www.w3.org/2000/svg" p-id="6167" xmlns:xlink="http://www.w3.org/1999/xlink" width="200" height="200"><path d="M563.2 749.226667H119.466667c-37.546667 0-68.266667-30.72-68.266667-68.266667V365.226667c0-37.546667 30.72-68.266667 68.266667-68.266667h443.733333c37.546667 0 68.266667 30.72 68.266667 68.266667v314.026666c0 39.253333-30.72 69.973333-68.266667 69.973334z" fill="#333333" opacity=".3" p-id="6168"></path><path d="M896 771.413333h-768c-51.2 0-93.866667-42.666667-93.866667-93.866666V209.92c0-51.2 42.666667-93.866667 93.866667-93.866667h768c51.2 0 93.866667 42.666667 93.866667 93.866667v465.92c0 52.906667-42.666667 95.573333-93.866667 95.573333zM128 167.253333C104.106667 167.253333 85.333333 186.026667 85.333333 209.92v465.92c0 23.893333 18.773333 42.666667 42.666667 42.666667h768c23.893333 0 42.666667-18.773333 42.666667-42.666667V209.92c0-23.893333-18.773333-42.666667-42.666667-42.666667h-768z" fill="#333333" p-id="6169"></path><path d="M512 907.946667c-13.653333 0-25.6-11.946667-25.6-25.6v-136.533334c0-13.653333 11.946667-25.6 25.6-25.6s25.6 11.946667 25.6 25.6v136.533334c0 13.653333-11.946667 25.6-25.6 25.6z" fill="#333333" p-id="6170"></path><path d="M680.96 907.946667H343.04c-13.653333 0-25.6-11.946667-25.6-25.6s11.946667-25.6 25.6-25.6h337.92c13.653333 0 25.6 11.946667 25.6 25.6s-11.946667 25.6-25.6 25.6zM776.533333 648.533333h-529.066666c-13.653333 0-25.6-11.946667-25.6-25.6s11.946667-25.6 25.6-25.6h530.773333c13.653333 0 25.6 11.946667 25.6 25.6s-11.946667 25.6-27.306667 25.6z" fill="#333333" p-id="6171"></path></svg>