<?xml version="1.0" standalone="no"?><!DOCTYPE svg PUBLIC "-//W3C//DTD SVG 1.1//EN" "http://www.w3.org/Graphics/SVG/1.1/DTD/svg11.dtd"><svg t="1729653139721" class="icon" viewBox="0 0 1024 1024" version="1.1" xmlns="http://www.w3.org/2000/svg" p-id="13215" xmlns:xlink="http://www.w3.org/1999/xlink" width="200" height="200"><path d="M784.247876 855.636182c-8.69965 0-17.3993-3.070465-24.051974-9.723139l-155.570215-155.05847a33.97981 33.97981 0 0 1 0-48.103948c13.305347-13.305347 34.798601-13.305347 48.103948 0l155.570215 155.05847c13.305347 13.305347 13.305347 34.798601 0 48.103948-6.652674 6.14093-15.352324 9.723138-24.051974 9.723139z" p-id="13216"></path><path d="M716.185907 768.127936c-8.69965 0-17.911044-3.582209-24.051974-10.234883a33.97981 33.97981 0 0 1 0-48.103948l68.061969-67.550224c13.305347-13.305347 34.798601-13.305347 48.103948 0s13.305347 34.798601 0 48.103948l-68.061969 67.550224c-7.164418 6.652674-15.864068 10.234883-24.051974 10.234883z" p-id="13217"></path><path d="M624.583708 859.730135c-8.69965 0-17.3993-3.070465-24.051974-9.723138a33.97981 33.97981 0 0 1 0-48.103949l91.602199-92.113943c13.305347-13.305347 34.798601-13.305347 48.103948 0 13.305347 13.305347 13.305347 34.798601 0 48.103948l-91.602199 92.113944c-6.652674 6.652674-15.352324 9.723138-24.051974 9.723138z m264.05997-548.589705h-149.429285c-72.155922 0-131.006497-58.850575-131.006497-131.006497v-145.847076a34.286857 34.286857 0 0 1 68.573713 0v145.847076c0 34.286857 28.145927 62.432784 62.432784 62.432784h149.429285c18.934533 0 34.286857 15.352324 34.286857 34.286856 0.511744 18.934533-14.84058 34.286857-34.286857 34.286857z" p-id="13218"></path><path d="M512 960.031984h-339.798101c-72.155922 0-131.006497-58.850575-131.006497-131.006497v-697.507246c0-72.155922 58.850575-131.006497 131.006497-131.006497h470.292854a34.286857 34.286857 0 0 1 0 68.573713h-470.292854c-34.798601 0-62.432784 28.145927-62.432784 62.432784v697.507246c0 34.286857 28.145927 62.432784 62.432784 62.432784h339.798101a34.286857 34.286857 0 0 1 0 68.573713z" p-id="13219"></path><path d="M704.415792 1024c-153.523238 0-278.388806-124.865567-278.388805-277.877061s124.865567-277.877061 278.388805-277.877062 278.388806 124.865567 278.388806 277.877062-124.865567 277.877061-278.388806 277.877061z m0-487.692154c-115.654173 0-210.326837 94.16092-210.326836 209.815093s94.16092 209.815092 210.326836 209.815092 210.326837-94.16092 210.326837-209.815092-94.672664-209.815092-210.326837-209.815093z m184.73963-41.963018c-18.934533 0-34.286857-15.352324-34.286856-34.286857v-168.875562l-233.355323-229.773114c-13.305347-13.305347-13.817091-34.798601-0.511744-48.103948s34.798601-13.817091 48.103948-0.511744l253.825088 249.731135v197.533233c0.511744 18.934533-14.84058 34.286857-33.775113 34.286857z m-365.897051-77.785108h-277.365318a34.286857 34.286857 0 0 1 0-68.573713h277.365318a34.286857 34.286857 0 0 1 0 68.573713z m-164.269865 189.857072h-113.095453a34.286857 34.286857 0 0 1 0-68.573714h113.095453a34.286857 34.286857 0 0 1 0 68.573714z" p-id="13220"></path></svg>