<?xml version="1.0" encoding="UTF-8"?>
<svg width="14px" height="14px" viewBox="0 0 14 14" version="1.1" xmlns="http://www.w3.org/2000/svg" xmlns:xlink="http://www.w3.org/1999/xlink">
    <title>通用</title>
    <g id="页面-1" stroke="none" stroke-width="1" fill="none" fill-rule="evenodd" stroke-linejoin="round">
        <g id="icon-" transform="translate(-184, -107)" stroke="#666666" stroke-width="1.5">
            <g id="编组" transform="translate(185, 108)">
                <path d="M4,0 L0.666666667,0 C0.298476667,0 0,0.298476667 0,0.666666667 L0,4 C0,4.3682 0.298476667,4.66666667 0.666666667,4.66666667 L4,4.66666667 C4.3682,4.66666667 4.66666667,4.3682 4.66666667,4 L4.66666667,0.666666667 C4.66666667,0.298476667 4.3682,0 4,0 Z" id="路径"></path>
                <path d="M4,7.33333333 L0.666666667,7.33333333 C0.298476667,7.33333333 0,7.6318 0,8 L0,11.3333333 C0,11.7015333 0.298476667,12 0.666666667,12 L4,12 C4.3682,12 4.66666667,11.7015333 4.66666667,11.3333333 L4.66666667,8 C4.66666667,7.6318 4.3682,7.33333333 4,7.33333333 Z" id="路径"></path>
                <path d="M11.3333333,0 L8,0 C7.6318,0 7.33333333,0.298476667 7.33333333,0.666666667 L7.33333333,4 C7.33333333,4.3682 7.6318,4.66666667 8,4.66666667 L11.3333333,4.66666667 C11.7015333,4.66666667 12,4.3682 12,4 L12,0.666666667 C12,0.298476667 11.7015333,0 11.3333333,0 Z" id="路径"></path>
                <path d="M11.3333333,7.33333333 L8,7.33333333 C7.6318,7.33333333 7.33333333,7.6318 7.33333333,8 L7.33333333,11.3333333 C7.33333333,11.7015333 7.6318,12 8,12 L11.3333333,12 C11.7015333,12 12,11.7015333 12,11.3333333 L12,8 C12,7.6318 11.7015333,7.33333333 11.3333333,7.33333333 Z" id="路径"></path>
            </g>
        </g>
    </g>
</svg>