<?xml version="1.0" encoding="UTF-8"?>
<svg width="12px" height="16px" viewBox="0 0 12 16" version="1.1" xmlns="http://www.w3.org/2000/svg" xmlns:xlink="http://www.w3.org/1999/xlink">
    <title>记录备份</title>
    <g id="页面-1" stroke="none" stroke-width="1" fill="none" fill-rule="evenodd" stroke-linejoin="round">
        <g id="icon-" transform="translate(-678, -154)" stroke="#666666" stroke-width="1.5">
            <g id="记录备份" transform="translate(679, 155)">
                <path d="M2.66666667,1.70731707 L0.333333333,1.70731707 C0.149233333,1.70731707 0,1.86019707 0,2.04878049 L0,13.6585366 C0,13.8471268 0.149233333,14 0.333333333,14 L9.66666667,14 C9.85076667,14 10,13.8471268 10,13.6585366 L10,2.04878049 C10,1.86019707 9.85076667,1.70731707 9.66666667,1.70731707 L7.33333333,1.70731707" id="路径"></path>
                <path d="M2.66666667,3.41463415 L2.66666667,1.70731707 L3.9835,1.70731707 C3.9926,1.70731707 4,1.69975024 4,1.69041463 L4,1.02439024 C4,0.458636585 4.4477,0 5,0 C5.5523,0 6,0.458636585 6,1.02439024 L6,1.69041463 C6,1.69975024 6.0074,1.70731707 6.0165,1.70731707 L7.33333333,1.70731707 L7.33333333,3.41463415 C7.33333333,3.60322439 7.1841,3.75609756 7,3.75609756 L3,3.75609756 C2.8159,3.75609756 2.66666667,3.60322439 2.66666667,3.41463415 Z" id="路径"></path>
            </g>
        </g>
    </g>
</svg>