<?xml version="1.0" encoding="UTF-8"?>
<svg width="15px" height="16px" viewBox="0 0 15 16" version="1.1" xmlns="http://www.w3.org/2000/svg" xmlns:xlink="http://www.w3.org/1999/xlink">
    <title>翻译</title>
    <g id="页面-1" stroke="none" stroke-width="1" fill="none" fill-rule="evenodd" stroke-linecap="round" stroke-linejoin="round">
        <g id="icon-" transform="translate(-33, -257)" stroke="#666666" stroke-width="1.5">
            <g id="编组" transform="translate(34, 258)">
                <path d="M8.04761389,12.0555556 L12.1746083,12.0555556 M13,14 L12.1746083,12.0555556 L13,14 Z M7.22222222,14 L8.04761389,12.0555556 L7.22222222,14 Z M8.04761389,12.0555556 L10.1111111,7 L12.1746083,12.0555556 L8.04761389,12.0555556 Z" id="形状"></path>
                <line x1="3.61111111" y1="0" x2="3.97222222" y2="1.16666667" id="路径"></line>
                <line x1="0" y1="1.94444444" x2="7.94444444" y2="1.94444444" id="路径"></line>
                <path d="M1.44444444,3.88888889 C1.44444444,3.88888889 2.09065278,6.32368333 3.70615556,7.67631667 C5.32162222,9.02898889 7.94444444,10.1111111 7.94444444,10.1111111" id="路径"></path>
                <path d="M6.5,1.94444444 C6.5,1.94444444 5.85379167,5.1401 4.23828889,6.91545556 C2.62282222,8.69081111 0,10.1111111 0,10.1111111" id="路径"></path>
            </g>
        </g>
    </g>
</svg>