<?xml version="1.0" standalone="no"?><!DOCTYPE svg PUBLIC "-//W3C//DTD SVG 1.1//EN" "http://www.w3.org/Graphics/SVG/1.1/DTD/svg11.dtd"><svg t="1729591199075" class="icon" viewBox="0 0 1024 1024" version="1.1" xmlns="http://www.w3.org/2000/svg" p-id="7591" xmlns:xlink="http://www.w3.org/1999/xlink" width="200" height="200"><path d="M986.026667 481.792c20.821333 0 37.76 16.853333 37.76 37.674667v202.453333c0 180.693333-116.437333 302.08-289.749334 302.08H289.706667C116.394667 1024 0 902.613333 0 721.92a37.802667 37.802667 0 0 1 75.605333 0c0 137.728 84.010667 226.645333 214.101334 226.645333h444.330666c130.133333 0 214.272-88.917333 214.272-226.645333v-202.453333c0-20.821333 16.853333-37.674667 37.717334-37.674667zM909.994667 39.936l6.528 6.144 61.269333 61.184A156.245333 156.245333 0 0 1 1024 218.624c0 38.826667-13.952 75.562667-39.552 104.362667l-6.656 7.04-378.026667 377.472a146.048 146.048 0 0 1-94.250666 42.666666l-9.728 0.341334H307.072a37.717333 37.717333 0 0 1-37.546667-33.578667l-0.213333-5.034667 4.778667-189.952 0.512-9.386666c2.816-31.189333 15.36-60.416 36.053333-83.882667l6.442667-6.869333 376.32-375.722667a158.08 158.08 0 0 1 216.576-6.144z m-157.952 54.656l-5.248 4.778667-30.976 30.933333 96 95.786667a37.76 37.76 0 0 1-49.621334 56.746666l-3.84-3.413333-95.914666-95.829333-291.925334 291.498666a71.082667 71.082667 0 0 0-20.48 41.898667l-0.469333 6.826667-3.754667 151.253333h149.973334c16.64 0 32.512-5.632 45.269333-16.085333l5.290667-4.778667 378.026666-377.472c30.378667-30.378667 32-78.677333 4.821334-110.933333l-4.778667-5.205334-61.312-61.226666a82.474667 82.474667 0 0 0-111.061333-4.778667zM477.994667 1.92a37.717333 37.717333 0 0 1 0 75.349333H289.706667c-130.133333 0-214.186667 89.045333-214.186667 226.773334v192.938666a37.76 37.76 0 0 1-75.52 0V304.042667C0 123.306667 116.48 1.962667 289.706667 1.962667z" fill="#666666" p-id="7592"></path></svg>