<?xml version="1.0" standalone="no"?><!DOCTYPE svg PUBLIC "-//W3C//DTD SVG 1.1//EN" "http://www.w3.org/Graphics/SVG/1.1/DTD/svg11.dtd"><svg t="1729762348656" class="icon" viewBox="0 0 1024 1024" version="1.1" xmlns="http://www.w3.org/2000/svg" p-id="16054" xmlns:xlink="http://www.w3.org/1999/xlink" width="200" height="200"><path d="M957.008748 785.091772c2.983961 17.871019-0.748037 33.935903-11.169387 48.241724-10.431583 14.289448-24.570605 22.933315-42.460044 25.915229l-107.221 16.997116c-17.286712 2.967588-33.209356-0.748037-47.803749-11.183713-14.59644-10.43363-23.385617-24.584931-26.367531-42.455951l-91.14179-577.262376c-1.193175-8.93858-0.748037-17.422811 1.333368-25.462928 2.087545-8.046257 5.51562-15.494902 10.280134-22.343891 4.759397-6.847965 10.878768-12.510942 18.321274-16.975627 7.442506-4.466732 15.628956-7.596002 24.571628-9.385764l106.347097-16.975627c17.86181-2.986007 33.95023 0.88823 48.246841 11.616572 14.291494 10.724249 22.941502 25.018813 25.916253 42.888809L957.008748 785.091772zM507.517407 150.624533c17.877159 0 33.06814 6.253424 45.568848 18.769482 12.521175 12.503778 18.779715 27.695782 18.779715 45.565778L571.865971 811.883975c0 17.883299-6.257517 33.075303-18.779715 45.574988-12.500709 12.515035-27.692712 18.786878-45.568848 18.786878l-92.933599 0c-17.866926 0-33.05893-6.271844-45.572942-18.786878-12.511965-12.499685-18.765389-27.692712-18.765389-45.574988L350.245478 214.959793c0-17.869996 4.76963-33.063023 14.297634-45.565778 9.535167-12.515035 23.533996-18.769482 41.999556-18.769482L507.517407 150.624533 507.517407 150.624533zM507.517407 600.99387c5.965875 0 11.029194-2.830465 15.193027-8.491395 4.174066-5.647627 6.263657-12.361539 6.263657-20.103874 0-8.337899-2.089591-15.178701-6.263657-20.547988-4.16281-5.353938-9.227152-8.032954-15.193027-8.032954l-92.933599 0c-5.959735 0-11.016915 2.677992-15.192004 8.032954-4.164856 5.369288-6.253424 12.21009-6.253424 20.547988 0 7.741311 2.088568 14.456247 6.253424 20.103874 4.176113 5.66093 9.232269 8.491395 15.192004 8.491395L507.517407 600.99387 507.517407 600.99387zM507.517407 487.516376c5.965875 0 11.029194-2.837628 15.193027-8.496511 4.174066-5.652743 6.263657-12.662391 6.263657-20.99722 0-8.341992-2.089591-15.19405-6.263657-20.555152-4.16281-5.359055-9.227152-8.037047-15.193027-8.037047l-92.933599 0c-5.959735 0-11.016915 2.677992-15.192004 8.037047-4.164856 5.361101-6.253424 12.213159-6.253424 20.555152 0 8.335852 2.088568 15.344476 6.253424 20.99722 4.176113 5.65786 9.232269 8.496511 15.192004 8.496511L507.517407 487.516376zM226.931964 150.624533c17.868973 0 33.211403 6.253424 46.02422 18.769482 12.801561 12.503778 19.204387 27.695782 19.204387 45.565778L292.160571 811.883975c0 17.883299-6.402827 33.075303-19.204387 45.574988-12.812817 12.515035-28.155247 18.786878-46.02422 18.786878l-92.937692 0c-17.869996 0-33.214473-6.271844-46.01808-18.786878-12.808724-12.499685-19.215644-27.692712-19.215644-45.574988L68.760548 214.959793c0-17.869996 6.40692-33.063023 19.215644-45.565778 12.802584-12.515035 28.148084-18.769482 46.01808-18.769482L226.931964 150.624533 226.931964 150.624533zM137.566634 374.028649c-6.55223 0-11.908214 2.677992-16.087397 8.04421-4.16588 5.353938-6.250354 12.205996-6.250354 20.547988 0 7.744381 2.084475 14.44499 6.250354 20.103874 4.179183 5.662977 9.535167 8.490372 16.087397 8.490372l85.790922 0c6.548136 0 11.765975-2.827395 15.634072-8.490372 3.87833-5.65786 5.809309-12.358469 5.809309-20.103874 0-8.341992-1.930979-15.19405-5.809309-20.547988-3.868097-5.366218-9.084912-8.04421-15.634072-8.04421L137.566634 374.028649zM226.931964 654.618185c6.548136 0 11.756765-2.692319 15.639189-8.048303 3.864004-5.353938 5.806239-11.903098 5.806239-19.644409 0-8.353248-1.942235-15.040555-5.806239-20.1182-3.8814-5.063319-9.091052-7.603165-15.639189-7.603165l-89.36533 0c-6.55223 0-11.908214 2.538823-16.087397 7.603165-4.16588 5.077645-6.250354 11.764951-6.250354 20.1182 0 7.741311 2.084475 14.290471 6.250354 19.644409 4.179183 5.355985 9.535167 8.048303 16.087397 8.048303L226.931964 654.618185zM226.931964 544.705889c6.548136 0 11.756765-2.692319 15.639189-8.046257 3.864004-5.354961 5.806239-12.20702 5.806239-20.551058 0-8.338922-1.942235-15.19405-5.806239-20.552082-3.8814-5.362124-9.091052-8.039093-15.639189-8.039093l-89.36533 0c-6.55223 0-11.908214 2.676969-16.087397 8.039093-4.16588 5.358031-6.250354 12.213159-6.250354 20.552082 0 8.344039 2.084475 15.196097 6.250354 20.551058 4.179183 5.353938 9.535167 8.046257 16.087397 8.046257L226.931964 544.705889z" fill="#262635" p-id="16055"></path></svg>