<?xml version="1.0" standalone="no"?><!DOCTYPE svg PUBLIC "-//W3C//DTD SVG 1.1//EN" "http://www.w3.org/Graphics/SVG/1.1/DTD/svg11.dtd"><svg t="1731051577725" class="icon" viewBox="0 0 1024 1024" version="1.1" xmlns="http://www.w3.org/2000/svg" p-id="2502" xmlns:xlink="http://www.w3.org/1999/xlink" width="200" height="200"><path d="M42.666667 128a42.666667 42.666667 0 0 1 42.666666-42.666667h682.666667a42.666667 42.666667 0 0 1 42.666667 42.666667v298.666667h128a42.666667 42.666667 0 0 1 42.666666 42.666666v341.333334a42.666667 42.666667 0 0 1-42.666666 42.666666h-89.002667l-51.498667 51.498667a42.666667 42.666667 0 0 1-60.330666 0L686.336 853.333333H469.333333a42.666667 42.666667 0 0 1-42.666666-42.666666v-128H380.330667l-72.832 72.832a42.666667 42.666667 0 0 1-60.330667 0L174.336 682.666667H85.333333a42.666667 42.666667 0 0 1-42.666666-42.666667V128z m768 512a42.666667 42.666667 0 0 1-42.666667 42.666667h-256v85.333333h192a42.666667 42.666667 0 0 1 30.165333 12.501333l33.834667 33.834667 33.834667-33.834667A42.666667 42.666667 0 0 1 832 768H896v-256h-85.333333v128zM725.333333 170.666667H128v426.666666h64a42.666667 42.666667 0 0 1 30.165333 12.501334L277.333333 665.002667l55.168-55.168A42.666667 42.666667 0 0 1 362.666667 597.333333H725.333333V170.666667zM405.333333 341.333333a42.666667 42.666667 0 0 0 0 85.333334h21.333334a42.666667 42.666667 0 1 0 0-85.333334h-21.333334zM512 384a42.666667 42.666667 0 0 1 42.666667-42.666667h21.333333a42.666667 42.666667 0 1 1 0 85.333334H554.666667a42.666667 42.666667 0 0 1-42.666667-42.666667zM256 341.333333a42.666667 42.666667 0 0 0 0 85.333334h21.333333a42.666667 42.666667 0 0 0 0-85.333334H256z" p-id="2503"></path></svg>